<svg width="32" height="32" viewBox="0 0 32 32" fill="none" xmlns="http://www.w3.org/2000/svg">
<path d="M30.08 16.3333C30.08 15.2933 29.9867 14.2933 29.8133 13.3333H16V19.0133H23.8933C23.5467 20.8399 22.5067 22.3866 20.9467 23.4266V27.1199H25.7067C28.48 24.5599 30.08 20.7999 30.08 16.3333Z" fill="#4285F4"/>
<path d="M15.9999 30.6667C19.9599 30.6667 23.28 29.36 25.7066 27.12L20.9466 23.4267C19.6399 24.3067 17.9733 24.84 15.9999 24.84C12.1866 24.84 8.94662 22.2667 7.78662 18.8H2.90662V22.5867C5.31995 27.3734 10.2666 30.6667 15.9999 30.6667Z" fill="#34A853"/>
<path d="M7.78671 18.7868C7.49337 17.9068 7.32004 16.9734 7.32004 16.0001C7.32004 15.0268 7.49337 14.0934 7.78671 13.2134V9.42676H2.90671C1.90671 11.4001 1.33337 13.6268 1.33337 16.0001C1.33337 18.3734 1.90671 20.6001 2.90671 22.5734L6.70671 19.6134L7.78671 18.7868Z" fill="#FBBC05"/>
<path d="M15.9999 7.17325C18.1599 7.17325 20.0799 7.91992 21.6133 9.35992L25.8133 5.15992C23.2666 2.78659 19.9599 1.33325 15.9999 1.33325C10.2666 1.33325 5.31995 4.62659 2.90662 9.42659L7.78662 13.2133C8.94662 9.74659 12.1866 7.17325 15.9999 7.17325Z" fill="#EA4335"/>
</svg>
